<svg width="11" height="11" viewBox="0 0 11 11" fill="none" xmlns="http://www.w3.org/2000/svg">
<path id="Vector" d="M9.5478 1.19023L9.80977 1.4522C10.0133 1.65571 10.0133 1.9848 9.80977 2.18614L9.17975 2.81833L8.18167 1.82025L8.81169 1.19023C9.0152 0.986715 9.34429 0.986715 9.54564 1.19023H9.5478ZM4.54224 5.46184L7.44772 2.5542L8.4458 3.55228L5.53816 6.45776C5.47537 6.52054 5.39743 6.56601 5.31299 6.58982L4.04645 6.95139L4.40801 5.68484C4.43183 5.6004 4.47729 5.52246 4.54008 5.45968L4.54224 5.46184ZM8.07774 0.456281L3.80613 4.72573C3.61777 4.91409 3.48138 5.14575 3.40993 5.39906L2.79073 7.56409C2.73877 7.74595 2.78856 7.94081 2.9228 8.07504C3.05703 8.20927 3.25188 8.25907 3.43374 8.20711L5.59878 7.5879C5.85425 7.51429 6.08591 7.3779 6.27211 7.1917L10.5437 2.92226C11.1521 2.31388 11.1521 1.32662 10.5437 0.71825L10.2817 0.456281C9.67337 -0.152094 8.68612 -0.152094 8.07774 0.456281ZM1.90523 1.30064C0.853024 1.30064 0 2.15367 0 3.20587V9.09477C0 10.147 0.853024 11 1.90523 11H7.79412C8.84633 11 9.69936 10.147 9.69936 9.09477V6.66993C9.69936 6.38198 9.4677 6.15032 9.17975 6.15032C8.8918 6.15032 8.66014 6.38198 8.66014 6.66993V9.09477C8.66014 9.57324 8.2726 9.96078 7.79412 9.96078H1.90523C1.42676 9.96078 1.03922 9.57324 1.03922 9.09477V3.20587C1.03922 2.7274 1.42676 2.33986 1.90523 2.33986H4.33007C4.61802 2.33986 4.84968 2.1082 4.84968 1.82025C4.84968 1.5323 4.61802 1.30064 4.33007 1.30064H1.90523Z" fill="white"/>
</svg>
